<svg xmlns="http://www.w3.org/2000/svg" viewBox="0 0 860 200" width="860" height="200">
<defs>
  <style>
    @keyframes tw1{0%,100%{opacity:1}50%{opacity:.08}}
    @keyframes tw2{0%,100%{opacity:.4}50%{opacity:1}}
    @keyframes tw3{0%,100%{opacity:.7}50%{opacity:.05}}
    .s1{animation:tw1 2.1s ease-in-out infinite}
    .s2{animation:tw1 1.7s 0.5s ease-in-out infinite}
    .s3{animation:tw2 3.2s 0.2s ease-in-out infinite}
    .s4{animation:tw3 2.5s 0.8s ease-in-out infinite}
    .s5{animation:tw2 1.9s 1.3s ease-in-out infinite}
    .s6{animation:tw1 2.8s 0.4s ease-in-out infinite}
    @keyframes flm{
      0%  {opacity:1}
      20% {opacity:.35}
      40% {opacity:.9}
      60% {opacity:.25}
      80% {opacity:.8}
      100%{opacity:1}
    }
    .flame{animation:flm 0.28s step-end infinite}
  </style>
  <radialGradient id="neb1" cx="20%" cy="75%" r="55%">
    <stop offset="0%" stop-color="#0d2040" stop-opacity="0.7"/>
    <stop offset="100%" stop-color="#060d1f" stop-opacity="0"/>
  </radialGradient>
  <radialGradient id="neb2" cx="78%" cy="20%" r="38%">
    <stop offset="0%" stop-color="#091828" stop-opacity="0.6"/>
    <stop offset="100%" stop-color="#060d1f" stop-opacity="0"/>
  </radialGradient>
  <pattern id="pg" width="8" height="8" patternUnits="userSpaceOnUse">
    <path d="M 8 0 L 0 0 0 8" fill="none" stroke="#58A6FF" stroke-opacity="0.045" stroke-width="0.5"/>
  </pattern>
</defs>

<!-- ── BACKGROUND ── -->
<rect width="860" height="200" fill="#060d1f"/>
<rect width="860" height="200" fill="url(#neb1)"/>
<rect width="860" height="200" fill="url(#neb2)"/>
<rect width="860" height="200" fill="url(#pg)"/>

<!-- ── STARS row y≈5–18 ── -->
<rect class="s1" x="15"  y="8"  width="2" height="2" fill="#fff"/>
<rect class="s3" x="62"  y="12" width="3" height="3" fill="#aecfff"/>
<rect class="s2" x="128" y="5"  width="2" height="2" fill="#fff"/>
<rect class="s4" x="198" y="14" width="1" height="1" fill="#fff"/>
<rect class="s1" x="268" y="8"  width="2" height="2" fill="#c9e6ff"/>
<rect class="s5" x="348" y="11" width="3" height="3" fill="#fff"/>
<rect class="s3" x="418" y="6"  width="2" height="2" fill="#aecfff"/>
<rect class="s2" x="488" y="13" width="1" height="1" fill="#fff"/>
<rect class="s4" x="558" y="9"  width="2" height="2" fill="#fff"/>
<rect class="s1" x="618" y="7"  width="3" height="3" fill="#c9e6ff"/>
<rect class="s5" x="688" y="13" width="2" height="2" fill="#fff"/>
<rect class="s6" x="738" y="5"  width="1" height="1" fill="#aecfff"/>

<!-- ── STARS row y≈28–42 ── -->
<rect class="s2" x="38"  y="32" width="2" height="2" fill="#fff"/>
<rect class="s4" x="98"  y="28" width="3" height="3" fill="#aecfff"/>
<rect class="s1" x="168" y="36" width="1" height="1" fill="#fff"/>
<rect class="s5" x="238" y="30" width="2" height="2" fill="#fff"/>
<rect class="s3" x="308" y="40" width="2" height="2" fill="#c9e6ff"/>
<rect class="s2" x="375" y="28" width="1" height="1" fill="#fff"/>
<rect class="s4" x="445" y="35" width="3" height="3" fill="#fff"/>
<rect class="s1" x="515" y="29" width="2" height="2" fill="#aecfff"/>
<rect class="s5" x="582" y="38" width="1" height="1" fill="#fff"/>
<rect class="s3" x="648" y="32" width="2" height="2" fill="#fff"/>
<rect class="s6" x="712" y="28" width="2" height="2" fill="#c9e6ff"/>
<rect class="s2" x="848" y="35" width="2" height="2" fill="#fff"/>

<!-- ── STARS row y≈50–68 ── -->
<rect class="s3" x="22"  y="55" width="2" height="2" fill="#fff"/>
<rect class="s1" x="85"  y="62" width="1" height="1" fill="#aecfff"/>
<rect class="s5" x="155" y="50" width="3" height="3" fill="#fff"/>
<rect class="s2" x="222" y="65" width="2" height="2" fill="#fff"/>
<rect class="s4" x="292" y="52" width="1" height="1" fill="#c9e6ff"/>
<rect class="s3" x="358" y="60" width="2" height="2" fill="#fff"/>
<rect class="s1" x="428" y="55" width="2" height="2" fill="#fff"/>
<rect class="s5" x="498" y="66" width="3" height="3" fill="#aecfff"/>
<rect class="s2" x="568" y="50" width="1" height="1" fill="#fff"/>
<rect class="s4" x="635" y="58" width="2" height="2" fill="#fff"/>
<rect class="s6" x="705" y="64" width="2" height="2" fill="#c9e6ff"/>
<rect class="s1" x="758" y="52" width="1" height="1" fill="#fff"/>
<rect class="s3" x="845" y="60" width="2" height="2" fill="#aecfff"/>

<!-- ── STARS row y≈75–92 ── -->
<rect class="s2" x="48"  y="80" width="2" height="2" fill="#fff"/>
<rect class="s4" x="115" y="75" width="3" height="3" fill="#aecfff"/>
<rect class="s1" x="182" y="88" width="1" height="1" fill="#fff"/>
<rect class="s5" x="250" y="78" width="2" height="2" fill="#c9e6ff"/>
<rect class="s3" x="318" y="85" width="2" height="2" fill="#fff"/>
<rect class="s2" x="388" y="76" width="1" height="1" fill="#fff"/>
<rect class="s4" x="458" y="90" width="2" height="2" fill="#aecfff"/>
<rect class="s1" x="525" y="82" width="3" height="3" fill="#fff"/>
<rect class="s5" x="595" y="75" width="1" height="1" fill="#fff"/>
<rect class="s6" x="660" y="88" width="2" height="2" fill="#c9e6ff"/>
<rect class="s3" x="728" y="80" width="2" height="2" fill="#fff"/>
<rect class="s2" x="802" y="78" width="1" height="1" fill="#aecfff"/>
<rect class="s4" x="850" y="85" width="2" height="2" fill="#fff"/>

<!-- ── STARS row y≈98–115 ── -->
<rect class="s5" x="18"  y="102" width="2" height="2" fill="#fff"/>
<rect class="s3" x="78"  y="110" width="1" height="1" fill="#aecfff"/>
<rect class="s2" x="148" y="98"  width="3" height="3" fill="#fff"/>
<rect class="s4" x="215" y="108" width="2" height="2" fill="#c9e6ff"/>
<rect class="s1" x="282" y="100" width="1" height="1" fill="#fff"/>
<rect class="s5" x="352" y="112" width="2" height="2" fill="#fff"/>
<rect class="s6" x="422" y="99"  width="2" height="2" fill="#aecfff"/>
<rect class="s2" x="492" y="105" width="3" height="3" fill="#fff"/>
<rect class="s4" x="560" y="112" width="1" height="1" fill="#fff"/>
<rect class="s1" x="628" y="100" width="2" height="2" fill="#c9e6ff"/>
<rect class="s5" x="698" y="108" width="2" height="2" fill="#fff"/>
<rect class="s3" x="762" y="99"  width="1" height="1" fill="#aecfff"/>
<rect class="s2" x="832" y="110" width="2" height="2" fill="#fff"/>

<!-- ── STARS row y≈120–138 ── -->
<rect class="s4" x="55"  y="125" width="2" height="2" fill="#fff"/>
<rect class="s1" x="120" y="132" width="3" height="3" fill="#c9e6ff"/>
<rect class="s5" x="190" y="120" width="1" height="1" fill="#fff"/>
<rect class="s3" x="258" y="128" width="2" height="2" fill="#fff"/>
<rect class="s2" x="328" y="122" width="2" height="2" fill="#aecfff"/>
<rect class="s6" x="395" y="135" width="1" height="1" fill="#fff"/>
<rect class="s1" x="465" y="125" width="2" height="2" fill="#fff"/>
<rect class="s5" x="535" y="130" width="3" height="3" fill="#c9e6ff"/>
<rect class="s3" x="602" y="120" width="1" height="1" fill="#fff"/>
<rect class="s2" x="670" y="128" width="2" height="2" fill="#aecfff"/>
<rect class="s4" x="738" y="135" width="2" height="2" fill="#fff"/>
<rect class="s1" x="810" y="122" width="1" height="1" fill="#fff"/>

<!-- ── STARS row y≈142–160 ── -->
<rect class="s3" x="28"  y="148" width="2" height="2" fill="#c9e6ff"/>
<rect class="s5" x="95"  y="155" width="1" height="1" fill="#fff"/>
<rect class="s2" x="162" y="142" width="3" height="3" fill="#aecfff"/>
<rect class="s4" x="230" y="152" width="2" height="2" fill="#fff"/>
<rect class="s1" x="298" y="145" width="1" height="1" fill="#fff"/>
<rect class="s6" x="368" y="158" width="2" height="2" fill="#fff"/>
<rect class="s5" x="438" y="148" width="2" height="2" fill="#c9e6ff"/>
<rect class="s2" x="508" y="155" width="3" height="3" fill="#fff"/>
<rect class="s4" x="575" y="142" width="1" height="1" fill="#aecfff"/>
<rect class="s1" x="642" y="150" width="2" height="2" fill="#fff"/>
<rect class="s3" x="712" y="158" width="2" height="2" fill="#fff"/>
<rect class="s5" x="778" y="145" width="1" height="1" fill="#c9e6ff"/>
<rect class="s2" x="842" y="152" width="2" height="2" fill="#aecfff"/>

<!-- ── STARS row y≈165–180 ── -->
<rect class="s4" x="42"  y="168" width="2" height="2" fill="#fff"/>
<rect class="s1" x="108" y="175" width="3" height="3" fill="#c9e6ff"/>
<rect class="s3" x="178" y="165" width="1" height="1" fill="#fff"/>
<rect class="s5" x="245" y="172" width="2" height="2" fill="#aecfff"/>
<rect class="s2" x="315" y="168" width="2" height="2" fill="#fff"/>
<rect class="s6" x="382" y="178" width="1" height="1" fill="#fff"/>
<rect class="s1" x="452" y="170" width="2" height="2" fill="#fff"/>
<rect class="s3" x="522" y="165" width="3" height="3" fill="#c9e6ff"/>
<rect class="s5" x="590" y="175" width="1" height="1" fill="#aecfff"/>
<rect class="s2" x="658" y="168" width="2" height="2" fill="#fff"/>
<rect class="s4" x="725" y="178" width="2" height="2" fill="#fff"/>
<rect class="s1" x="795" y="165" width="1" height="1" fill="#fff"/>
<rect class="s3" x="838" y="172" width="2" height="2" fill="#c9e6ff"/>

<!-- ── STARS row y≈185–198 ── -->
<rect class="s5" x="20"  y="190" width="2" height="2" fill="#aecfff"/>
<rect class="s2" x="80"  y="185" width="1" height="1" fill="#fff"/>
<rect class="s4" x="150" y="192" width="2" height="2" fill="#fff"/>
<rect class="s1" x="218" y="188" width="3" height="3" fill="#c9e6ff"/>
<rect class="s3" x="288" y="196" width="1" height="1" fill="#fff"/>
<rect class="s6" x="355" y="188" width="2" height="2" fill="#aecfff"/>
<rect class="s5" x="425" y="193" width="2" height="2" fill="#fff"/>
<rect class="s2" x="495" y="186" width="1" height="1" fill="#fff"/>
<rect class="s4" x="562" y="192" width="3" height="3" fill="#c9e6ff"/>
<rect class="s1" x="630" y="188" width="2" height="2" fill="#fff"/>
<rect class="s3" x="700" y="195" width="1" height="1" fill="#aecfff"/>
<rect class="s5" x="765" y="188" width="2" height="2" fill="#fff"/>
<rect class="s2" x="828" y="193" width="2" height="2" fill="#fff"/>

<!-- ── PIXEL MOON (top-right) ── -->
<circle cx="800" cy="36" r="26" fill="#0e1d33" stroke="#1a3050" stroke-width="1.5"/>
<!-- craters -->
<rect x="790" y="24" width="7" height="7" rx="3.5" fill="#09141e"/>
<rect x="804" y="37" width="5" height="5" rx="2.5" fill="#09141e"/>
<rect x="796" y="44" width="4" height="4" rx="2"   fill="#09141e"/>
<rect x="813" y="26" width="3" height="3" rx="1.5" fill="#09141e"/>
<!-- moon rim highlight -->
<path d="M785 24 Q777 36 788 48" fill="none" stroke="#243d5a" stroke-width="1.5" stroke-linecap="round"/>

<!-- ── PIXEL ROCKET (flying bottom-right → top-left) ── -->
<!-- Pixel size = 6px, rocket centered at origin, rotated -45° to face travel direction -->
<g>
  <animateTransform attributeName="transform" type="translate"
    from="910 195" to="-90 -20" dur="11s" repeatCount="indefinite"/>

  <!-- Static tilt: nose points upper-left -->
  <g transform="rotate(-45)">

    <!-- ░░ NOSE (blue) ░░ -->
    <rect x="0"   y="-30" width="6"  height="6" fill="#58A6FF"/>
    <rect x="-6"  y="-24" width="18" height="6" fill="#58A6FF"/>
    <rect x="-12" y="-18" width="30" height="6" fill="#79BAFF"/>

    <!-- ░░ UPPER BODY ░░ -->
    <rect x="-18" y="-12" width="42" height="6" fill="#c9d1d9"/>

    <!-- ░░ WINDOW ROW ░░ -->
    <rect x="-18" y="-6"  width="12" height="6" fill="#c9d1d9"/>
    <rect x="-6"  y="-6"  width="18" height="6" fill="#7ee8ff"/>
    <rect x="12"  y="-6"  width="12" height="6" fill="#c9d1d9"/>
    <!-- window glare -->
    <rect x="-4"  y="-5"  width="5"  height="5" fill="#d4f5ff" opacity="0.65"/>

    <!-- ░░ MID BODY ░░ -->
    <rect x="-18" y="0"   width="42" height="6" fill="#c9d1d9"/>
    <rect x="-18" y="6"   width="42" height="6" fill="#b8c2cc"/>

    <!-- ░░ LOWER BODY (tapering) ░░ -->
    <rect x="-12" y="12"  width="30" height="6" fill="#c9d1d9"/>
    <rect x="-6"  y="18"  width="18" height="6" fill="#b8c2cc"/>

    <!-- ░░ LANDING LEGS ░░ -->
    <rect x="-12" y="24"  width="6"  height="6" fill="#8b949e"/>
    <rect x="12"  y="24"  width="6"  height="6" fill="#8b949e"/>
    <rect x="-18" y="30"  width="12" height="6" fill="#8b949e"/>
    <rect x="12"  y="30"  width="12" height="6" fill="#8b949e"/>

    <!-- ░░ FLAME (flickering) ░░ -->
    <g class="flame">
      <rect x="-6"  y="36" width="18" height="6" fill="#ff8c00"/>
      <rect x="-12" y="42" width="30" height="6" fill="#ff6a00"/>
      <rect x="-6"  y="48" width="18" height="6" fill="#ffaa00"/>
      <rect x="0"   y="54" width="6"  height="6" fill="#ffee55"/>
    </g>

    <!-- ░░ FLAME FRAME B (alternates with A for pixel-art flicker) ░░ -->
    <g>
      <animate attributeName="opacity" values="0;1;0;0;1;0" dur="0.28s" calcMode="discrete" repeatCount="indefinite"/>
      <rect x="-12" y="36" width="30" height="6" fill="#ffaa00"/>
      <rect x="-6"  y="42" width="18" height="6" fill="#ff8c00"/>
      <rect x="0"   y="48" width="6"  height="6" fill="#ffee55"/>
    </g>

  </g>
</g>

</svg>
